<?xml version="1.0" encoding="UTF-8"?>
<svg width="98px" height="28px" viewBox="0 0 98 28" version="1.1" xmlns="http://www.w3.org/2000/svg" xmlns:xlink="http://www.w3.org/1999/xlink">
    <!-- Generator: Sketch 63.1 (92452) - https://sketch.com -->
    <title>Branding/Logo/thinko_logo@3x</title>
    <desc>Created with Sketch.</desc>
    <g id="Branding/Logo/thinko_logo" stroke="none" stroke-width="1" fill="none" fill-rule="evenodd">
        <path d="M5.32643946,5.8419957 L5.45183367,5.84264888 C7.38372881,5.86319683 7.79069148,6.37238545 7.79069148,7.91202482 L7.79069148,10.7682528 L10.3640073,10.7682528 C11.4723312,10.7682528 11.973435,11.1981592 11.973435,12.8412264 L11.9724449,12.9650159 C11.9476685,14.4828748 11.4570778,14.9003193 10.4063359,14.9110419 L7.86143556,14.9112556 L7.86143556,22.1254395 C7.86143556,23.2679307 8.64846341,23.8038415 9.57697943,23.8038415 C9.93364748,23.8038415 10.3286352,23.7302274 10.6499313,23.5535535 L10.7415526,23.510066 C11.9174807,22.9635871 12.5078608,23.1558571 13.1286117,24.4655034 L13.152503,24.5164262 C13.7243509,25.7325315 13.759723,26.3391119 12.6160271,26.9456923 C11.4723312,27.5876074 10.0073392,27.9468443 8.57771934,27.9468443 C5.5769914,27.9468443 2.64405988,26.3744467 2.64405988,22.5200112 L2.64405988,14.9142001 L1.60942775,14.9142001 C0.515313159,14.9142001 0.0129486235,14.4952462 0.000247316256,12.9066575 L0,12.844171 C0,11.2011038 0.501103879,10.7711973 1.60942775,10.7711973 L2.82386774,10.7711973 L2.82386774,7.91496939 C2.82386774,6.34257174 3.28665191,5.8419957 5.32643946,5.8419957 Z M65.7111269,-2.27373675e-13 L65.8390201,0.000682722042 C67.7705833,0.0217035766 68.3522391,0.532003212 68.3522391,2.06510116 L68.3522391,16.7202793 L74.0707186,11.6689949 L74.1390613,11.6083231 C75.1848498,10.6895984 76.1357182,10.312524 77.4310623,11.7393961 L77.5158553,11.8334583 C78.7862378,13.2569135 78.6881494,13.823533 77.3956903,14.8341144 L73.6786785,17.999234 L78.04123,24.1886707 L78.0985384,24.2750841 C78.9567103,25.5816502 78.8649913,26.0505678 77.2370871,27.1391356 L77.183458,27.1748539 C75.5386582,28.2778056 74.6808863,27.7468634 73.9321781,26.4649754 L70.2859105,20.7360797 L68.3551867,22.3377064 L68.3551867,25.5761605 C68.3551867,27.1396533 67.7479667,27.6735289 65.7111269,27.6735289 L65.5839265,27.6727832 C63.7047031,27.6503397 63.1153759,27.1179242 63.1026506,25.6262393 L63.102439,2.06510116 C63.102439,0.498674996 63.709659,-2.27373675e-13 65.7111269,-2.27373675e-13 Z M17.6948623,-2.27373675e-13 L17.8231239,0.000729849188 C19.7391588,0.0229414553 20.329065,0.555438937 20.3416627,2.05065939 L20.3418698,11.0647181 C22.8798136,10.2815051 25.4177573,10.2815051 27.4899693,11.0999187 C30.0986571,12.1295359 31.884945,14.4439746 31.884945,18.1429697 L31.884945,25.5409599 C31.884945,27.0539692 31.5353747,27.664226 29.3432507,27.6764623 L29.2762572,27.6764623 C27.0467576,27.6764623 26.6748923,27.0842106 26.6676779,25.5866189 L26.6675694,18.0373679 C26.6675694,16.2245377 25.9866576,15.0863853 24.7722176,14.5877103 C23.6638938,14.1594365 22.0927857,14.3002389 20.3389221,15.0130508 L20.3389221,25.5409599 C20.3389221,27.0539692 19.9893518,27.664226 17.7972278,27.6764623 L17.7302343,27.6764623 C15.4782145,27.6764623 15.0861744,27.0721855 15.0861744,25.5409599 L15.0861744,2.10030175 C15.0861744,0.536808966 15.6933944,-2.27373675e-13 17.6948623,-2.27373675e-13 Z M51.6781974,10.4223074 C56.3620448,10.457508 60.0761089,12.7338127 60.0761089,18.1019024 L60.0761089,25.5350932 C60.0761089,27.0481024 59.7265385,27.6583592 57.5344146,27.670413 L57.4674211,27.6705955 C55.2154013,27.6705955 54.8587332,27.0663187 54.8587332,25.5350932 L54.8587332,17.9963006 C54.8587332,15.5762602 53.6089212,14.4410412 51.6428254,14.2943721 C50.7143094,14.2591715 49.6413575,14.4733084 48.4239699,14.8663816 L48.4239699,25.5350932 C48.4239699,27.0481024 48.0743995,27.6583592 45.8822756,27.670413 L45.815282,27.6705955 C43.5632622,27.6705955 43.2065942,27.0663187 43.2065942,25.5350932 L43.2065942,14.4410412 C43.2065942,12.8394145 43.7784421,12.091402 45.137318,11.6279276 C47.3893377,10.8153806 49.6413575,10.4223074 51.6781974,10.4223074 Z M37.4708768,10.7366408 L37.599767,10.7373582 C39.5457609,10.7594309 40.1029871,11.2941186 40.1147455,12.7961744 L40.1149367,25.5251489 C40.1149367,27.0950105 39.5430887,27.6310608 37.4708768,27.6310608 L37.3437248,27.6303121 C35.465942,27.6077771 34.9097575,27.0731929 34.8977604,25.5754317 L34.897561,12.8454979 C34.897561,11.272691 35.4723566,10.7366408 37.4708768,10.7366408 Z M37.5029268,2.36837664 C39.144404,2.36837664 40.4269919,3.6392307 40.4269919,5.26569072 C40.4269919,6.89215074 39.144404,8.16300481 37.5029268,8.16300481 C35.8614497,8.16300481 34.5788618,6.89215074 34.5788618,5.26569072 C34.5788618,3.6392307 35.8614497,2.36837664 37.5029268,2.36837664 Z" id="Shape" fill="#6400E4"></path>
        <path d="M88.7577236,10.4740112 C93.9491173,10.4711062 98,14.1734924 98,19.2544577 C98,24.2976138 93.952072,28 88.7577236,28 C83.5988314,28 79.5154472,24.2947054 79.5154472,19.2544577 C79.5154472,14.1734924 83.5988314,10.4740112 88.7577236,10.4740112 Z M88.7577236,14.6029061 C86.3910153,14.6029061 84.5650157,16.3096889 84.5650157,19.3066156 C84.5650157,22.2690618 86.39397,23.9729712 88.7577236,23.9729712 C91.1569334,23.9729712 92.9504315,22.3006689 92.9504315,19.3066156 C92.9504315,16.3125622 91.1569334,14.6029061 88.7577236,14.6029061 Z M84.1741581,2.36837664 C85.7544879,2.36837664 87.1164228,3.6787801 87.1164228,5.24765765 C87.1164228,6.81653519 85.7544879,8.16300481 84.1741581,8.16300481 C82.5938284,8.16300481 81.2682927,6.81653519 81.2682927,5.24765765 C81.2682927,3.6787801 82.5938284,2.36837664 84.1741581,2.36837664 Z M93.4528337,2.36837664 C95.0361967,2.36837664 96.3586992,3.6787801 96.3586992,5.24765765 C96.3586992,6.81653519 95.0331635,8.16300481 93.4528337,8.16300481 C91.872504,8.16300481 90.5105691,6.81653519 90.5105691,5.24765765 C90.5105691,3.6787801 91.872504,2.36837664 93.4528337,2.36837664 Z" id="Combined-Shape" fill="#37D4C8"></path>
    </g>
</svg>